<?xml version="1.0" encoding="UTF-8" standalone="no"?>
<!-- Created with Inkscape (http://www.inkscape.org/) -->

<svg
   width="140.82442mm"
   height="65.050537mm"
   viewBox="0 0 140.82442 65.050537"
   version="1.1"
   id="svg1"
   xml:space="preserve"
   inkscape:export-filename="../../../../../../../../Google Drive/Mi unidad/ciclo/lenguaje de marca/Pruevas/assets/logogrande.png"
   inkscape:export-xdpi="96"
   inkscape:export-ydpi="96"
   inkscape:version="1.3.2 (091e20e, 2023-11-25)"
   sodipodi:docname="logogrande.svg"
   xmlns:inkscape="http://www.inkscape.org/namespaces/inkscape"
   xmlns:sodipodi="http://sodipodi.sourceforge.net/DTD/sodipodi-0.dtd"
   xmlns="http://www.w3.org/2000/svg"
   xmlns:svg="http://www.w3.org/2000/svg"><sodipodi:namedview
     id="namedview1"
     pagecolor="#505050"
     bordercolor="#eeeeee"
     borderopacity="1"
     inkscape:showpageshadow="0"
     inkscape:pageopacity="0"
     inkscape:pagecheckerboard="0"
     inkscape:deskcolor="#505050"
     inkscape:document-units="mm"
     inkscape:zoom="1.0368618"
     inkscape:cx="268.11674"
     inkscape:cy="85.35371"
     inkscape:window-width="1920"
     inkscape:window-height="948"
     inkscape:window-x="0"
     inkscape:window-y="25"
     inkscape:window-maximized="1"
     inkscape:current-layer="layer1" /><defs
     id="defs1"><clipPath
       clipPathUnits="userSpaceOnUse"
       id="clipPath24"><path
         style="fill:#000000;stroke-width:1"
         d="m 0.61081544,206.69074 c -4.11490634,0.0135 -5.21723904,0.11217 -8.10906584,0.72399 -13.7463866,2.90831 -23.5648566,9.93527 -24.9178596,17.83405 -0.777679,4.54007 1.68619,9.40491 5.904032,11.65666 l 1.452109,0.77514 0.710034,4.60592 c 1.313321,8.51896 2.795214,14.81602 4.010091,17.04082 0.407936,0.74705 0.966842,1.25289 1.900659,1.7198 1.208091,0.60404 1.593974,0.65769 4.445724,0.61649 l 3.122807,-0.0455 -0.173633,1.76578 c -0.321281,3.26047 0.569222,4.78029 3.7176025,6.34276 3.7246907,1.84851 13.0195772,3.82407 23.1510415,4.92011 1.819008,0.1968 5.271825,0.37076 7.672917,0.38706 4.445824,0.0302 6.098965,-0.20296 7.848099,-1.10792 2.646047,-1.36903 3.297584,-4.77234 3.396691,-17.74932 l 0.06201,-8.17779 1.159618,-0.7798 c 2.508594,-1.68724 3.651266,-3.27248 4.370795,-6.06475 1.16966,-4.53908 -1.525815,-9.94295 -6.633189,-13.29944 -3.396125,-2.23189 -10.150157,-4.53859 -15.294156,-5.22346 -1.849512,-0.24625 -2.30657,-0.3912 -2.190564,-0.6935 0.966128,-2.51768 0.848311,-5.89888 -0.284737,-8.16022 -1.550033,-3.09357 -4.70625,-5.45686 -8.838737,-6.61872 -1.3880753,-0.39026 -2.63839,-0.48079 -6.48229157,-0.46819 z"
         id="path25" /></clipPath></defs><g
     inkscape:label="Capa 1"
     inkscape:groupmode="layer"
     id="layer1"
     transform="translate(-36.634836,-48.822462)"><path
       id="path2"
       style="fill:#784421;fill-opacity:1;stroke-width:0.662079"
       d="m 144.59169,48.823376 c -3.38168,0.01112 -4.28816,0.09199 -6.66471,0.594796 -11.29694,2.390076 -19.36538,8.165163 -20.4773,14.65647 -0.6391,3.731076 1.38562,7.729268 4.8519,9.579777 l 1.19321,0.636654 0.58394,3.785298 c 1.0793,7.000982 2.29701,12.175937 3.29541,14.004313 0.33525,0.613932 0.79475,1.029644 1.56218,1.413351 0.99281,0.496419 1.3099,0.540229 3.65352,0.506429 l 2.56625,-0.03721 -0.14314,1.451074 c -0.26403,2.679507 0.46825,3.928552 3.05563,5.212602 3.06099,1.5191 10.69955,3.14243 19.02571,4.04317 1.49489,0.16172 4.33232,0.30492 6.30556,0.31832 3.65363,0.0248 5.01227,-0.16682 6.44973,-0.91054 2.17455,-1.12504 2.70965,-3.92205 2.79104,-14.586705 l 0.0517,-6.72052 0.95291,-0.640787 c 2.0616,-1.386598 3.0002,-2.688959 3.59152,-4.983676 0.96124,-3.730268 -1.25354,-8.171671 -5.45083,-10.930082 -2.79098,-1.834189 -8.34187,-3.729922 -12.56926,-4.292761 -1.51995,-0.202371 -1.89519,-0.321029 -1.79989,-0.569474 0.79398,-2.069061 0.69654,-4.848166 -0.23461,-6.706568 -1.27383,-2.54232 -3.867,-4.484632 -7.26313,-5.439461 -1.14073,-0.320729 -2.16835,-0.394803 -5.32732,-0.384473 z m -0.0677,2.14974 c 2.94285,-0.01045 5.81646,0.559164 7.53856,1.56838 2.08756,1.223395 3.74939,3.716444 3.71399,5.572786 -0.007,0.384178 -0.18215,1.236716 -0.38809,1.894458 l -0.37414,1.195793 -2.78794,0.155546 c -9.38103,0.523021 -14.75026,3.474877 -16.13235,8.869743 -0.65384,2.552159 -0.0647,5.559274 1.49241,7.618139 0.38479,0.508781 0.78576,1.039856 0.89142,1.18029 0.11899,0.158137 -0.22802,1.821897 -0.91209,4.370793 -0.60747,2.263428 -1.2685,4.898211 -1.46864,5.85494 -0.20014,0.956723 -0.42535,1.795615 -0.50075,1.864485 -0.30952,0.282641 -2.32106,-0.224955 -2.68872,-0.678511 -1.06131,-1.30924 -3.2866,-11.571982 -3.99769,-18.436601 -0.0785,-0.757563 -0.25157,-1.405346 -0.38447,-1.439705 -2.27874,-0.589098 -2.85542,-0.871326 -3.94343,-1.930632 -0.92174,-0.897434 -1.22748,-1.3812 -1.52394,-2.409672 -0.7434,-2.578927 0.25039,-5.444175 2.76159,-7.960754 3.59371,-3.601402 9.25466,-6.141772 15.77837,-7.080705 0.95618,-0.137618 1.94497,-0.205288 2.92591,-0.208773 z M 54.793555,62.21429 c -0.262938,-0.0072 -0.526253,-0.0035 -0.789616,0.01034 l -0.06615,5.16e-4 h -0.01033 c -3.406907,0.02172 -6.679349,1.897549 -8.643917,4.643128 -1.376409,1.957468 -2.091268,4.384007 -1.982308,6.77168 0.17083,1.075215 1.186031,1.962824 2.2934,1.875854 0.887479,0.03482 1.781646,-0.524161 1.990576,-1.416451 0.41669,-1.255115 0.381667,-2.645134 1.057817,-3.815788 0.833179,-1.651315 2.440703,-2.93544 4.260722,-3.294372 1.131908,-0.05687 2.308445,-0.167541 3.412194,0.136942 2.523788,0.852988 4.436998,3.400884 4.414718,6.059579 0.0729,1.447091 0.06276,2.896506 0.06356,4.344954 -6.013694,0.02403 -12.029469,-0.0582 -18.041793,0.07338 -1.248999,0.04906 -2.458723,0.508327 -3.417362,1.310514 -1.241919,0.992495 -2.149181,2.393777 -2.60966,3.906222 -0.0586,0.895607 -8.77e-4,1.796611 -0.03411,2.695442 -0.003,4.757098 -0.152214,9.518786 0.04703,14.273031 0.0817,1.544199 0.593551,3.102429 1.69137,4.225579 1.200998,1.32248 2.955856,2.21306 4.769734,2.10375 6.608944,0.14709 13.220331,0.0567 19.830314,0.062 1.282709,-0.0238 2.582914,0.0349 3.855062,-0.0382 1.626199,-0.67752 3.255811,-1.63718 4.12533,-3.23185 0.877699,-1.46333 0.970335,-3.213876 0.943095,-4.875664 0.0803,-5.103921 -0.02161,-10.208203 -0.03411,-15.312244 -0.633839,-1.565256 -1.517556,-3.111751 -2.969844,-4.050915 -1.050699,-0.729545 -2.320569,-1.155257 -3.603398,-1.151351 -0.0498,-2.363362 0.17385,-4.769525 -0.348299,-7.094658 -0.692289,-2.760966 -2.543678,-5.174255 -4.988326,-6.619751 -1.560815,-0.980682 -3.375136,-1.541231 -5.215702,-1.591634 z m 100.452265,2.062924 c 4.05384,-0.01995 5.66355,0.185263 8.92349,1.136881 4.49591,1.312412 7.67387,3.221276 9.54205,5.731433 0.70347,0.945209 1.4304,3.121087 1.4304,4.281909 0,2.075675 -1.51038,4.247299 -3.66644,5.27203 l -1.12913,0.536401 -0.0677,8.249109 c -0.0562,6.809736 -0.13481,8.578401 -0.45011,10.136849 -0.4056,2.004814 -0.628,2.336664 -1.86242,2.783294 -1.08384,0.39216 -6.61721,0.46262 -9.34981,0.11885 -1.2557,-0.15796 -3.55509,-0.44786 -5.10977,-0.64388 -5.8136,-0.73299 -8.64776,-1.3809 -11.128,-2.544551 -1.10165,-0.51685 -1.38684,-0.762529 -1.58543,-1.364258 -0.52049,-1.577088 0.6665,-7.880584 3.04994,-16.195394 l 1.08417,-3.781165 -0.49403,-0.345715 c -0.82978,-0.580954 -1.59284,-1.394636 -2.25464,-2.403987 -0.55624,-0.848388 -0.63097,-1.157828 -0.63097,-2.609144 0,-1.999529 0.52168,-3.214433 2.05672,-4.790405 1.28428,-1.318515 3.17239,-2.283612 5.8627,-2.997233 1.82033,-0.482855 2.54804,-0.555204 5.77897,-0.571024 z M 61.144588,82.17948 c 1.648039,0.04178 3.307553,-0.05205 4.945952,0.149862 0.547749,0.239566 0.89259,0.803406 1.180289,1.297595 0.0183,2.050264 -0.02242,4.11538 -0.02222,6.171716 -0.0303,3.440305 9.1e-5,6.883786 -0.139009,10.321337 -0.0463,0.86661 -0.968477,1.36518 -1.762167,1.31878 -6.246513,0.14591 -12.497045,0.0729 -18.745109,0.0672 -1.478558,-0.0571 -2.996683,0.0649 -4.439522,-0.30748 -0.801929,-0.45328 -0.631811,-1.478079 -0.692981,-2.253088 -0.10067,-3.958256 -0.06632,-7.919084 -0.109037,-11.878345 -0.007,-1.158148 -0.01345,-2.31606 -0.02015,-3.474207 0.41727,-0.592825 0.872692,-1.407949 1.718241,-1.3255 1.614239,-0.108343 3.393898,-0.06808 5.077727,-0.08682 4.336095,-0.0076 8.671896,-0.0057 13.007991,-0.001 z" /><path
       id="path3-6"
       style="fill:#d38d5f;fill-opacity:1;stroke-width:1.04524"
       d="m 101.63772,79.175529 c -0.84248,0.02373 -6.113373,1.730029 -7.056413,2.313554 -0.536679,0.332092 -0.12963,0.850594 0.667659,0.850594 0.39932,0 0.842342,0.265342 1.100192,0.658874 0.374169,0.57101 0.421533,1.915601 0.352433,10.072254 l -0.0801,9.413375 -0.670244,0.71314 c -0.368749,0.39233 -0.835496,0.71365 -1.037146,0.71365 -0.20163,0 -0.366386,0.18681 -0.366386,0.41496 0,0.35293 0.721952,0.41445 4.839498,0.41445 4.117567,0 4.839497,-0.0615 4.839497,-0.41445 0,-0.22815 -0.16474,-0.41496 -0.36638,-0.41496 -0.20164,0 -0.6684,-0.32127 -1.03715,-0.71365 l -0.67024,-0.71314 -0.078,-11.51919 c -0.0436,-6.441002 -0.18937,-11.630537 -0.33022,-11.771374 -0.0142,-0.01421 -0.0508,-0.01967 -0.10697,-0.01809 z m -47.245174,6.22701 c -0.10649,-8.18e-4 -0.213124,0.0032 -0.320394,0.01189 -1.936308,0.04045 -3.621967,1.759083 -3.670577,3.688147 -0.0793,1.281644 0.495017,2.594844 1.516186,3.380155 0.20399,0.881597 0.04534,1.79786 0.115755,2.694409 0.0286,0.977989 -0.136772,2.032941 0.284738,2.94504 0.657489,1.215719 2.48002,1.537098 3.489709,0.576709 0.620419,-0.504469 0.818869,-1.330537 0.753959,-2.097546 0.029,-1.343279 0.01537,-2.687281 0.01757,-4.030762 1.392169,-1.012801 2.022486,-2.947258 1.410767,-4.570264 -0.519112,-1.522374 -2.00037,-2.585507 -3.597713,-2.597774 z m 26.119852,1.362708 c -0.485319,6.55e-4 -6.897308,2.311032 -7.169588,2.583304 -0.29377,0.293771 0.239449,0.734839 0.888318,0.734839 1.382989,0 1.552209,0.795299 1.458309,6.861597 -0.07841,5.069653 -0.131311,5.577173 -0.638721,6.139673 -0.3042,0.33725 -0.840795,0.72297 -1.192175,0.85732 -0.35139,0.13437 -0.561872,0.36901 -0.467672,0.52141 0.11133,0.17673 3.817501,0.27699 10.24847,0.27699 8.773701,0 10.077938,-0.0533 10.077938,-0.41445 0,-0.22815 -0.165253,-0.41496 -0.366903,-0.41496 -0.201629,0 -0.668396,-0.32103 -1.037146,-0.71313 -0.660419,-0.70226 -0.672526,-0.8085 -0.808736,-7.121017 -0.12437,-5.764009 -0.193414,-6.502794 -0.690914,-7.345288 -0.834749,-1.41361 -2.163141,-2.031736 -4.034379,-1.877922 -2.225708,0.182959 -3.627582,1.023614 -5.15369,3.091284 l -0.612366,0.829924 -0.0078,-2.005046 c -0.0075,-1.722079 -0.0773,-2.005104 -0.492993,-2.004528 z m 39.972242,0.281119 c -1.37971,0.01889 -2.74581,0.110955 -2.83756,0.259416 -0.09,0.145624 0.21362,0.460119 0.6749,0.698665 0.46129,0.238541 0.83871,0.553611 0.83871,0.700216 0,0.412243 -3.13695,8.016091 -3.30678,8.015531 -0.27717,-9.2e-4 -3.28823,-7.807713 -3.15019,-8.16746 0.075,-0.195418 0.44727,-0.43322 0.82733,-0.52865 0.38006,-0.09539 0.64121,-0.324485 0.57981,-0.509012 -0.1549,-0.466064 -8.4692,-0.624976 -8.89454,-0.170016 -0.21396,0.228801 -0.2017,0.353801 0.0439,0.443901 1.01057,0.370916 1.74345,1.682743 4.64158,8.310087 1.74621,3.993126 3.175,7.304836 3.175,7.359236 0,0.0544 -0.69857,0.1709 -1.55184,0.2589 -4.37307,0.45135 -7.83487,3.34445 -7.84087,6.55413 -0.003,1.29489 0.49501,2.20337 1.62471,2.96467 2.6109,1.75948 5.94577,-0.2177 8.09201,-4.79764 1.03009,-2.19819 1.12536,-2.30988 1.83296,-2.1549 0.41053,0.0899 4.79144,1.51427 9.73481,3.16569 10.71154,3.57837 13.65874,4.24639 18.05626,4.09019 3.38962,-0.12039 4.29841,-0.42317 5.95829,-1.98489 1.15577,-1.0874 1.70481,-2.11976 1.70481,-3.20497 0,-0.98626 -0.29576,-1.05043 -1.32653,-0.28836 -2.53427,1.87367 -8.66356,1.26145 -24.80779,-2.47736 -3.19419,-0.73974 -6.53233,-1.49185 -7.41815,-1.67122 -1.01981,-0.20648 -1.56305,-0.44373 -1.48105,-0.64751 0.0713,-0.17702 1.51509,-3.495586 3.20859,-7.374222 2.27146,-5.20231 3.29522,-7.239031 3.9026,-7.764901 0.45285,-0.392056 0.7394,-0.796428 0.63717,-0.898653 -0.14521,-0.145222 -1.53846,-0.19976 -2.91816,-0.180868 z m -35.927527,3.945496 c 0.405747,0.03147 0.745456,0.189784 1.005623,0.476973 0.49457,0.545937 0.559355,1.079799 0.642855,5.305103 0.10286,5.204962 0.0314,5.764762 -0.839742,6.576342 -0.903709,0.84194 -2.697727,0.76498 -3.560506,-0.15244 -0.65019,-0.69137 -0.67326,-0.8622 -0.75706,-5.653923 l -0.0863,-4.940784 1.084689,-0.717786 c 0.975255,-0.645393 1.834195,-0.94594 2.510441,-0.893485 z m 27.478947,15.072978 -0.51677,0.88522 c -0.28426,0.48688 -0.84734,1.12211 -1.25109,1.4118 -0.88223,0.63303 -1.57656,0.67661 -1.79317,0.11214 -0.3584,-0.93396 0.65143,-1.78191 2.6293,-2.20813 z" /></g></svg>
