<?xml version="1.0" encoding="UTF-8" standalone="no"?>
<!-- Created with Inkscape (http://www.inkscape.org/) -->

<svg
   width="210mm"
   height="297mm"
   viewBox="0 0 210 297"
   version="1.1"
   id="svg1"
   xml:space="preserve"
   inkscape:export-filename="logop.png"
   inkscape:export-xdpi="96"
   inkscape:export-ydpi="96"
   inkscape:version="1.3.2 (091e20e, 2023-11-25)"
   sodipodi:docname="logogrande.svg"
   xmlns:inkscape="http://www.inkscape.org/namespaces/inkscape"
   xmlns:sodipodi="http://sodipodi.sourceforge.net/DTD/sodipodi-0.dtd"
   xmlns="http://www.w3.org/2000/svg"
   xmlns:svg="http://www.w3.org/2000/svg"><sodipodi:namedview
     id="namedview1"
     pagecolor="#505050"
     bordercolor="#eeeeee"
     borderopacity="1"
     inkscape:showpageshadow="0"
     inkscape:pageopacity="0"
     inkscape:pagecheckerboard="0"
     inkscape:deskcolor="#505050"
     inkscape:document-units="mm"
     inkscape:zoom="0.51843089"
     inkscape:cx="184.2097"
     inkscape:cy="358.77492"
     inkscape:window-width="1920"
     inkscape:window-height="1027"
     inkscape:window-x="0"
     inkscape:window-y="25"
     inkscape:window-maximized="1"
     inkscape:current-layer="layer1" /><defs
     id="defs1"><clipPath
       clipPathUnits="userSpaceOnUse"
       id="clipPath24"><path
         style="fill:#000000;stroke-width:1"
         d="m 0.61081544,206.69074 c -4.11490634,0.0135 -5.21723904,0.11217 -8.10906584,0.72399 -13.7463866,2.90831 -23.5648566,9.93527 -24.9178596,17.83405 -0.777679,4.54007 1.68619,9.40491 5.904032,11.65666 l 1.452109,0.77514 0.710034,4.60592 c 1.313321,8.51896 2.795214,14.81602 4.010091,17.04082 0.407936,0.74705 0.966842,1.25289 1.900659,1.7198 1.208091,0.60404 1.593974,0.65769 4.445724,0.61649 l 3.122807,-0.0455 -0.173633,1.76578 c -0.321281,3.26047 0.569222,4.78029 3.7176025,6.34276 3.7246907,1.84851 13.0195772,3.82407 23.1510415,4.92011 1.819008,0.1968 5.271825,0.37076 7.672917,0.38706 4.445824,0.0302 6.098965,-0.20296 7.848099,-1.10792 2.646047,-1.36903 3.297584,-4.77234 3.396691,-17.74932 l 0.06201,-8.17779 1.159618,-0.7798 c 2.508594,-1.68724 3.651266,-3.27248 4.370795,-6.06475 1.16966,-4.53908 -1.525815,-9.94295 -6.633189,-13.29944 -3.396125,-2.23189 -10.150157,-4.53859 -15.294156,-5.22346 -1.849512,-0.24625 -2.30657,-0.3912 -2.190564,-0.6935 0.966128,-2.51768 0.848311,-5.89888 -0.284737,-8.16022 -1.550033,-3.09357 -4.70625,-5.45686 -8.838737,-6.61872 -1.3880753,-0.39026 -2.63839,-0.48079 -6.48229157,-0.46819 z"
         id="path25" /></clipPath></defs><g
     inkscape:label="Capa 1"
     inkscape:groupmode="layer"
     id="layer1"><path
       id="path2"
       style="fill:#c87137;fill-opacity:1;stroke-width:0.662079"
       d="m 53.927669,62.225067 c -3.40691,0.02172 -6.67964,1.897452 -8.64421,4.643034 -1.37641,1.95747 -2.09119,4.384353 -1.98223,6.772028 0.17083,1.075217 1.18618,1.962627 2.29355,1.875657 0.88748,0.03482 1.78149,-0.52434 1.99042,-1.416631 0.41669,-1.255116 0.38145,-2.644926 1.0576,-3.815581 0.83318,-1.651317 2.44091,-2.935585 4.26093,-3.294518 1.13191,-0.05687 2.30848,-0.167473 3.41223,0.137011 2.52379,0.852989 4.43711,3.400808 4.41483,6.059505 0.0729,1.447093 0.0626,2.896444 0.0634,4.344894 -6.0137,0.02403 -12.02932,-0.05787 -18.04165,0.07371 -1.249,0.04906 -2.45868,0.508271 -3.41732,1.310459 -1.24192,0.992496 -2.14945,2.393555 -2.60993,3.906001 -0.0586,0.895608 -6.7e-4,1.79679 -0.0339,2.695622 -0.003,4.757103 -0.15234,9.518542 0.0469,14.272792 0.0817,1.5442 0.59381,3.10263 1.69163,4.22578 1.201,1.32248 2.9556,2.21307 4.76948,2.10376 6.60895,0.14709 13.22035,0.0569 19.83034,0.0622 1.28271,-0.0238 2.58292,0.0345 3.85507,-0.0386 1.6262,-0.67752 3.25555,-1.63684 4.12507,-3.23151 0.8777,-1.46334 0.97064,-3.21422 0.9434,-4.87601 0.0803,-5.103926 -0.0219,-10.208184 -0.0344,-15.31223 -0.63384,-1.565258 -1.51735,-3.11165 -2.96964,-4.050815 -1.0507,-0.729545 -2.32047,-1.155354 -3.6033,-1.151448 -0.0498,-2.363364 0.17356,-4.769412 -0.34859,-7.094547 -0.69229,-2.760969 -2.54359,-5.174405 -4.98824,-6.619902 -1.78379,-1.120781 -3.89822,-1.692248 -6.00513,-1.581336 l -0.0662,6.29e-4 z m 7.21692,19.954179 c 1.64804,0.04178 3.3078,-0.05191 4.9462,0.150001 0.54775,0.239567 0.89229,0.803307 1.17999,1.297496 0.0183,2.050266 -0.0222,4.115489 -0.022,6.171827 -0.0303,3.440308 1.6e-4,6.883909 -0.13894,10.32146 -0.0463,0.86661 -0.96884,1.36539 -1.76253,1.31899 -6.24652,0.14591 -12.49699,0.0727 -18.74506,0.067 -1.47856,-0.0571 -2.9965,0.0648 -4.43934,-0.30753 -0.80193,-0.45328 -0.6319,-1.478291 -0.69307,-2.253301 -0.10067,-3.95826 -0.0663,-7.918863 -0.10902,-11.878128 -0.007,-1.158149 -0.0136,-2.316297 -0.0203,-3.474445 0.41727,-0.592826 0.87301,-1.407898 1.71856,-1.325449 1.61424,-0.108343 3.39349,-0.06784 5.07732,-0.08658 4.3361,-0.0076 8.6722,-0.006 13.0083,-0.0013 z"
       sodipodi:nodetypes="scccccccccccccccccccccccccccsccccccccccccccc" /><path
       style="fill:#fae9cf;fill-opacity:1;stroke-width:1.04524"
       d="m 105.30892,113.23619 c -1.1297,-0.7613 -1.62762,-1.66973 -1.62495,-2.96463 0.006,-3.20968 3.46813,-6.10317 7.8412,-6.55452 0.85328,-0.088 1.55143,-0.20459 1.55143,-0.25895 0,-0.0544 -1.4287,-3.36596 -3.17491,-7.359091 -2.89813,-6.62735 -3.63082,-7.93916 -4.64139,-8.310077 -0.24562,-0.0901 -0.25806,-0.215295 -0.0441,-0.444096 0.42534,-0.454961 8.73954,-0.295963 8.89444,0.170101 0.0614,0.184528 -0.19944,0.413535 -0.5795,0.508927 -0.38007,0.09543 -0.75237,0.333324 -0.82737,0.528743 -0.13804,0.359747 2.87318,8.166482 3.15035,8.167402 0.16983,5.6e-4 3.30668,-7.603079 3.30668,-8.015322 0,-0.146605 -0.37741,-0.461714 -0.8387,-0.700255 -0.46128,-0.238547 -0.76506,-0.552856 -0.67505,-0.69848 0.1835,-0.296922 5.46538,-0.369255 5.7558,-0.07881 0.10223,0.102225 -0.18455,0.506736 -0.6374,0.898792 -0.60738,0.52587 -1.63099,2.56261 -3.90245,7.764925 -1.6935,3.87864 -3.13741,7.196911 -3.20867,7.373931 -0.082,0.20378 0.46122,0.44146 1.48103,0.64794 0.88583,0.17937 4.22403,0.93136 7.41822,1.6711 16.14425,3.73882 22.27377,4.35088 24.80804,2.47721 1.03078,-0.76208 1.32615,-0.69785 1.32615,0.28841 0,1.08521 -0.54908,2.11739 -1.70485,3.20479 -1.65989,1.56172 -2.56869,1.86445 -5.95831,1.98484 -4.39753,0.1562 -7.34466,-0.51133 -18.05621,-4.0897 -4.94337,-1.65142 -9.32383,-3.07615 -9.73436,-3.16606 -0.7076,-0.15498 -0.80288,-0.043 -1.83297,2.15519 -2.14624,4.57994 -5.48119,6.55719 -8.0921,4.79771 z m 4.95946,-4.87411 c 0.40375,-0.28969 0.96666,-0.92507 1.25092,-1.41195 l 0.51685,-0.88525 -0.93167,0.20079 c -1.97787,0.42623 -2.98766,1.27434 -2.62926,2.2083 0.21661,0.56447 0.91092,0.52114 1.79316,-0.11189 z m -36.877361,-3.89863 c -0.0942,-0.1524 0.11626,-0.38701 0.46765,-0.52138 0.35138,-0.13435 0.88778,-0.52021 1.19198,-0.85746 0.50741,-0.5625 0.56018,-1.06984 0.63859,-6.139501 0.0939,-6.066304 -0.0753,-6.861871 -1.45829,-6.861871 -0.64887,0 -1.18206,-0.441111 -0.88829,-0.734882 0.27228,-0.272273 6.68458,-2.582419 7.1699,-2.583074 0.41569,-5.76e-4 0.48521,0.282257 0.49273,2.004338 l 0.008,2.005 0.61235,-0.829651 c 1.52611,-2.067673 2.92772,-2.90846 5.15343,-3.091419 1.87124,-0.153814 3.19955,0.464588 4.0343,1.878199 0.4975,0.842495 0.56701,1.580945 0.69138,7.34496 0.13621,6.312521 0.1483,6.418971 0.80872,7.121231 0.36875,0.39211 0.83544,0.71291 1.03707,0.71291 0.20165,0 0.36663,0.18668 0.36663,0.41483 0,0.36115 -1.30413,0.41483 -10.07784,0.41483 -6.43281,0 -10.13977,-0.10024 -10.24908,-0.27706 z m 11.97485,-1.11335 c 0.87114,-0.81158 0.9426,-1.37124 0.83974,-6.576211 -0.0835,-4.225308 -0.14818,-4.759016 -0.64275,-5.304953 -0.69378,-0.76584 -1.95576,-0.616475 -3.51617,0.416156 l -1.08473,0.717839 0.0864,4.941038 c 0.0838,4.791731 0.10669,4.962601 0.75688,5.653971 0.86278,0.91743 2.6569,0.9941 3.56061,0.15216 z m 9.18173,0.97558 c 0,-0.22815 0.16498,-0.41483 0.36661,-0.41483 0.20165,0 0.66833,-0.32098 1.03708,-0.71331 l 0.67045,-0.71331 0.0797,-9.413255 c 0.0691,-8.156661 0.0221,-9.501204 -0.35207,-10.072214 -0.25785,-0.393533 -0.70115,-0.65898 -1.10047,-0.65898 -0.79729,0 -1.20431,-0.51868 -0.66763,-0.850772 1.00591,-0.622427 6.936111,-2.522481 7.163411,-2.295176 0.14085,0.140837 0.28633,5.330033 0.32998,11.771042 l 0.0781,11.519175 0.67045,0.7134 c 0.36875,0.39238 0.83543,0.7134 1.03707,0.7134 0.20164,0 0.36662,0.18668 0.36662,0.41483 0,0.35294 -0.7221,0.41483 -4.839671,0.41483 -4.11755,0 -4.83966,-0.0619 -4.83966,-0.41483 z"
       id="path3-6"
       sodipodi:nodetypes="scssssssssssssssssssssssssssssscssscssssssccssssssssccsssscssssssscsssssscssssss" /><path
       style="fill:#c87137;fill-opacity:1;stroke-width:0.821812"
       d="m 157.09429,104.67024 c -8.32617,-0.90074 -15.9648,-2.524 -19.0258,-4.0431 -2.58738,-1.284051 -3.31951,-2.533051 -3.05548,-5.212561 l 0.143,-1.451179 -2.56635,0.0371 c -2.34362,0.0338 -2.66073,-0.0101 -3.65355,-0.50652 -0.76743,-0.383707 -1.22688,-0.799407 -1.56213,-1.413339 -0.9984,-1.828378 -2.21619,-7.003478 -3.29549,-14.004467 l -0.5835,-3.784906 -1.19331,-0.637066 c -3.46628,-1.850511 -5.49128,-5.848408 -4.85218,-9.579488 1.11192,-6.491313 9.18074,-12.26641 20.47769,-14.656488 2.37655,-0.502803 3.28275,-0.583689 6.66443,-0.594805 3.15897,-0.01033 4.18649,0.06376 5.32723,0.384489 3.39613,0.95483 5.9896,2.896986 7.26343,5.439309 0.93115,1.858403 1.02822,4.637453 0.23424,6.706516 -0.0953,0.248445 0.28035,0.367321 1.8003,0.569692 4.2274,0.56284 9.77798,2.458564 12.56896,4.292755 4.1973,2.758413 6.41216,7.199493 5.45092,10.929765 -0.59132,2.294719 -1.53007,3.597386 -3.59167,4.983985 l -0.95298,0.640965 -0.0512,6.720525 c -0.0814,10.664658 -0.61662,13.461448 -2.79117,14.586498 -1.43746,0.74372 -2.79594,0.93555 -6.44958,0.91075 -1.97324,-0.0134 -4.8108,-0.15667 -6.30569,-0.31839 z m 10.87188,-2.26501 c 1.23442,-0.44663 1.4565,-0.7786 1.8621,-2.783411 0.3153,-1.55845 0.39381,-3.3271 0.44999,-10.136843 l 0.068,-8.249013 1.12902,-0.536596 c 2.15606,-1.024732 3.66628,-3.196424 3.66628,-5.272101 0,-1.160823 -0.72672,-3.336488 -1.43019,-4.281698 -1.86818,-2.51016 -5.04618,-4.419019 -9.5421,-5.731432 -3.25994,-0.951619 -4.86941,-1.156645 -8.92325,-1.136697 -3.23093,0.01582 -3.95871,0.08775 -5.77905,0.570606 -2.69031,0.713622 -4.57874,1.679145 -5.86302,2.997662 -1.53505,1.575973 -2.0565,2.79057 -2.0565,4.790101 0,1.451317 0.0749,1.760866 0.63114,2.609254 0.6618,1.009352 1.42479,1.822835 2.25458,2.40379 l 0.4939,0.345797 -1.08394,3.781411 c -2.38344,8.314818 -3.57059,14.618299 -3.0501,16.195389 0.19859,0.60173 0.48383,0.84713 1.58548,1.36398 2.48024,1.163651 5.3144,1.811761 11.12801,2.544751 1.55468,0.19602 3.85408,0.48564 5.10978,0.6436 2.7326,0.34377 8.26597,0.27361 9.34982,-0.11855 z M 136.09731,89.253917 c 0.20014,-0.95673 0.8609,-3.591407 1.46837,-5.854837 0.68407,-2.548898 1.03135,-4.212537 0.91236,-4.370674 -0.10566,-0.140434 -0.50693,-0.671613 -0.89172,-1.180394 -1.55708,-2.058867 -2.14613,-5.065944 -1.49229,-7.618106 1.38209,-5.394871 6.75128,-8.346995 16.13232,-8.870017 l 2.78789,-0.15543 0.37443,-1.195906 c 0.20594,-0.657743 0.3804,-1.510242 0.38771,-1.89442 0.0354,-1.856344 -1.62601,-4.349389 -3.71357,-5.572785 -2.29614,-1.345622 -6.63981,-1.909892 -10.46455,-1.35942 -6.52371,0.938934 -12.18485,3.479456 -15.77856,7.080861 -2.5112,2.516582 -3.50516,5.381544 -2.76176,7.960474 0.29646,1.028473 0.60254,1.512373 1.52428,2.409808 1.08801,1.059307 1.66447,1.341557 3.94321,1.930655 0.1329,0.03436 0.30584,0.682293 0.3843,1.439857 0.71109,6.864626 2.93639,17.127155 3.9977,18.436396 0.36766,0.453557 2.37938,0.961272 2.6889,0.678631 0.0754,-0.06887 0.30084,-0.907969 0.50098,-1.864693 z"
       id="path5"
       sodipodi:nodetypes="ssscsssscsssssssssssccssssssscsssssssssscssssssssssssscscsssssscsss" /><path
       d="m 54.072019,85.414488 c -1.93631,0.04045 -3.62184,1.759045 -3.67045,3.688111 -0.0793,1.281646 0.49493,2.594787 1.5161,3.380099 0.20399,0.881598 0.0453,1.797801 0.11572,2.694351 0.0286,0.97799 -0.13677,2.03324 0.28474,2.94534 0.65749,1.21572 2.47995,1.53675 3.48964,0.57636 0.62042,-0.50447 0.81916,-1.33064 0.75425,-2.09765 0.029,-1.34328 0.0151,-2.686989 0.0173,-4.030471 1.39217,-1.012802 2.02286,-2.94731 1.41114,-4.570317 -0.55372,-1.623868 -2.20218,-2.724965 -3.91851,-2.585823 z"
       style="fill:#fae9cf;fill-opacity:1;stroke-width:0.662079"
       id="path1" /></g></svg>
