<?xml version="1.0" encoding="UTF-8" standalone="no"?>
<!-- Created with Inkscape (http://www.inkscape.org/) -->

<svg
   width="50.293087mm"
   height="46.981846mm"
   viewBox="0 0 50.293087 46.981846"
   version="1.1"
   id="svg1"
   xml:space="preserve"
   inkscape:export-filename="logop.png"
   inkscape:export-xdpi="96"
   inkscape:export-ydpi="96"
   sodipodi:docname="logopequeño.svg"
   inkscape:version="1.3.2 (091e20e, 2023-11-25)"
   xmlns:inkscape="http://www.inkscape.org/namespaces/inkscape"
   xmlns:sodipodi="http://sodipodi.sourceforge.net/DTD/sodipodi-0.dtd"
   xmlns="http://www.w3.org/2000/svg"
   xmlns:svg="http://www.w3.org/2000/svg"><sodipodi:namedview
     id="namedview1"
     pagecolor="#505050"
     bordercolor="#eeeeee"
     borderopacity="1"
     inkscape:showpageshadow="0"
     inkscape:pageopacity="0"
     inkscape:pagecheckerboard="0"
     inkscape:deskcolor="#505050"
     inkscape:document-units="mm"
     inkscape:zoom="1.28"
     inkscape:cx="94.140625"
     inkscape:cy="200.78125"
     inkscape:window-width="1392"
     inkscape:window-height="1027"
     inkscape:window-x="0"
     inkscape:window-y="25"
     inkscape:window-maximized="0"
     inkscape:current-layer="layer1" /><defs
     id="defs1"><clipPath
       clipPathUnits="userSpaceOnUse"
       id="clipPath24"><path
         style="fill:#000000;stroke-width:1"
         d="m 0.61081544,206.69074 c -4.11490634,0.0135 -5.21723904,0.11217 -8.10906584,0.72399 -13.7463866,2.90831 -23.5648566,9.93527 -24.9178596,17.83405 -0.777679,4.54007 1.68619,9.40491 5.904032,11.65666 l 1.452109,0.77514 0.710034,4.60592 c 1.313321,8.51896 2.795214,14.81602 4.010091,17.04082 0.407936,0.74705 0.966842,1.25289 1.900659,1.7198 1.208091,0.60404 1.593974,0.65769 4.445724,0.61649 l 3.122807,-0.0455 -0.173633,1.76578 c -0.321281,3.26047 0.569222,4.78029 3.7176025,6.34276 3.7246907,1.84851 13.0195772,3.82407 23.1510415,4.92011 1.819008,0.1968 5.271825,0.37076 7.672917,0.38706 4.445824,0.0302 6.098965,-0.20296 7.848099,-1.10792 2.646047,-1.36903 3.297584,-4.77234 3.396691,-17.74932 l 0.06201,-8.17779 1.159618,-0.7798 c 2.508594,-1.68724 3.651266,-3.27248 4.370795,-6.06475 1.16966,-4.53908 -1.525815,-9.94295 -6.633189,-13.29944 -3.396125,-2.23189 -10.150157,-4.53859 -15.294156,-5.22346 -1.849512,-0.24625 -2.30657,-0.3912 -2.190564,-0.6935 0.966128,-2.51768 0.848311,-5.89888 -0.284737,-8.16022 -1.550033,-3.09357 -4.70625,-5.45686 -8.838737,-6.61872 -1.3880753,-0.39026 -2.63839,-0.48079 -6.48229157,-0.46819 z"
         id="path25" /></clipPath></defs><g
     inkscape:label="Capa 1"
     inkscape:groupmode="layer"
     id="layer1"
     transform="translate(-7.0594489,-5.5715755)"><path
       style="fill:#c87137;fill-opacity:1;stroke-width:0.687404"
       d="M 40.318315,52.285334 C 33.353903,51.531911 26.964574,50.174137 24.404203,48.903487 22.239992,47.829453 21.627603,46.78472 21.848451,44.54345 l 0.119612,-1.213829 -2.146621,0.03103 c -1.960318,0.02827 -2.225565,-0.0084 -3.056008,-0.423678 -0.641916,-0.320954 -1.026222,-0.668666 -1.306642,-1.182187 -0.83511,-1.529346 -1.85373,-5.858053 -2.756509,-11.714024 L 12.214215,26.874881 11.216072,26.342012 C 8.316706,24.794155 6.622897,21.450116 7.157472,18.329258 8.087536,12.899609 14.836692,8.0690332 24.286013,6.0698532 c 1.987863,-0.420566 2.745853,-0.488227 5.574464,-0.49752 2.642314,-0.0086 3.501782,0.05337 4.455953,0.321607 2.840689,0.798666 5.009995,2.423175 6.075485,4.5496958 0.77886,1.554465 0.86006,3.878999 0.19593,5.609662 -0.0797,0.207815 0.2345,0.307244 1.50586,0.476516 3.53601,0.470787 8.17878,2.056468 10.5133,3.590675 3.51082,2.307269 5.36344,6.022005 4.55941,9.142186 -0.49461,1.919416 -1.27982,3.009033 -3.00425,4.168853 l -0.79712,0.53613 -0.0428,5.62138 c -0.0681,8.92044 -0.51577,11.259812 -2.33467,12.200859 -1.20237,0.622084 -2.33866,0.782541 -5.39475,0.761791 -1.65051,-0.0112 -4.02399,-0.131042 -5.27439,-0.266312 z m 9.09378,-1.894557 c 1.03253,-0.373591 1.21828,-0.651267 1.55755,-2.32818 0.26373,-1.303564 0.3294,-2.782958 0.37639,-8.478954 l 0.0569,-6.899876 0.94437,-0.448838 c 1.80343,-0.857134 3.06665,-2.673642 3.06665,-4.409842 0,-0.970967 -0.60786,-2.790804 -1.19628,-3.581424 -1.56263,-2.09962 -4.22087,-3.696284 -7.98148,-4.794048 -2.72677,-0.795982 -4.07301,-0.96747 -7.46384,-0.950792 -2.702507,0.01322 -3.311258,0.07336 -4.833879,0.477286 -2.250305,0.596907 -3.82988,1.404524 -4.904115,2.50739 -1.283999,1.318218 -1.720165,2.334169 -1.720165,4.006674 0,1.213955 0.06265,1.472878 0.527916,2.182513 0.55357,0.844269 1.191773,1.524704 1.88585,2.010647 l 0.413122,0.289236 -0.906661,3.162956 c -1.993634,6.954922 -2.986624,12.227458 -2.551261,13.546613 0.16611,0.503317 0.404699,0.708581 1.326173,1.1409 2.074602,0.973334 4.44523,1.515453 9.30802,2.128553 1.30041,0.163961 3.22374,0.406213 4.27407,0.538339 2.28568,0.287546 6.91406,0.228861 7.82064,-0.09915 z M 22.755412,39.390373 c 0.167407,-0.800256 0.720099,-3.004031 1.228217,-4.897275 0.572189,-2.132016 0.862671,-3.523566 0.763142,-3.655842 -0.08838,-0.117462 -0.424021,-0.561767 -0.745878,-0.987336 -1.302418,-1.722139 -1.795128,-4.237408 -1.248224,-6.37216 1.156047,-4.512533 5.647109,-6.98183 13.493867,-7.419318 l 2.331929,-0.130009 0.31319,-1.00031 c 0.17226,-0.550174 0.31819,-1.263238 0.3243,-1.584585 0.0296,-1.552742 -1.36007,-3.6380428 -3.106212,-4.6613538 -1.920604,-1.125543 -5.553859,-1.597526 -8.753067,-1.137086 -5.45675,0.785375 -10.192005,2.9103908 -13.19796,5.9227778 -2.10049,2.104999 -2.931887,4.501392 -2.310071,6.658535 0.247974,0.860262 0.503994,1.26502 1.274982,2.015683 0.910065,0.88605 1.392245,1.122138 3.298294,1.61489 0.111164,0.02877 0.25582,0.570701 0.321448,1.204369 0.59479,5.741904 2.45614,14.325986 3.343871,15.421099 0.307529,0.379379 1.99023,0.804061 2.249128,0.567639 0.06307,-0.05763 0.251637,-0.759462 0.419044,-1.559718 z"
       id="path5-4"
       sodipodi:nodetypes="ssscsssscsssssssssssccssssssscsssssssssscssssssssssssscscsssssscsss" /></g></svg>
